<svg xmlns="http://www.w3.org/2000/svg" width="16" height="16" fill="none" viewBox="0 0 16 16"><rect width=".65" height="13.031" fill="#DE1E7E" rx=".325" transform="matrix(-0.266106 -0.963944 -0.967804 0.251703 14.491 6.62866)"/><rect width=".65" height="13.614" fill="#DE1E7E" opacity=".25" rx=".325" transform="matrix(-0.266106 -0.963944 -0.967804 0.251703 15.2281 9.32983)"/><rect width=".65" height="12.307" fill="#DE1E7E" opacity=".75" rx=".325" transform="matrix(-0.266106 -0.963944 -0.967804 0.251703 15.7269 10.6319)"/><rect width=".65" height="14.487" fill="#DE1E7E" opacity=".5" rx=".325" transform="matrix(-0.266106 -0.963944 -0.967804 0.251703 14.6338 12.3535)"/><rect width=".65" height="7.914" fill="#DE1E7E" opacity=".75" rx=".325" transform="matrix(-0.266106 -0.963944 -0.967804 0.251703 16 13.5236)"/><rect width=".65" height="10.844" fill="#DE1E7E" opacity=".5" rx=".325" transform="matrix(-0.266106 -0.963944 -0.967804 0.251703 10.7341 6.15756)"/><rect width=".65" height="14.566" fill="#DE1E7E" opacity=".75" rx=".325" transform="matrix(-0.266106 -0.963944 -0.967804 0.251703 14.8522 3.62259)"/><rect width=".65" height="9.96" fill="#DE1E7E" opacity=".5" rx=".325" transform="matrix(-0.266106 -0.963944 -0.967804 0.251703 15.3185 2.03079)"/><rect width=".65" height="12.583" fill="#DE1E7E" opacity=".5" rx=".325" transform="matrix(-0.266106 -0.963944 -0.967804 0.251703 12.3506 8.61633)"/><rect width=".65" height="13.275" fill="#DE1E7E" opacity=".25" rx=".325" transform="matrix(-0.266106 -0.963944 -0.967804 0.251703 13.0864 1.2554)"/><rect width=".65" height="9.184" fill="#DE1E7E" opacity=".5" rx=".325" transform="matrix(-0.266106 -0.963944 -0.967804 0.251703 9.96375 0.626587)"/></svg>