<svg xmlns="http://www.w3.org/2000/svg" width="16" height="16" fill="none" viewBox="0 0 16 16"><ellipse cx="15.09" cy=".91" fill="#DE1E7E" opacity=".85" rx=".91" ry=".91" transform="rotate(90 15.0898 0.91)"/><ellipse cx="15.09" cy="5.625" fill="#DE1E7E" rx=".91" ry=".91" transform="rotate(90 15.0898 5.62477)"/><ellipse cx="15.09" cy="10.348" fill="#DE1E7E" opacity=".25" rx=".91" ry=".91" transform="rotate(90 15.0898 10.3485)"/><ellipse cx="15.09" cy="12.701" fill="#DE1E7E" opacity=".25" rx=".91" ry=".91" transform="rotate(90 15.0898 12.7008)"/><ellipse cx="13.064" cy="11.53" fill="#DE1E7E" opacity=".5" rx=".91" ry=".91" transform="rotate(90 13.0639 11.5296)"/><ellipse cx="13.064" cy="6.73" fill="#DE1E7E" opacity=".25" rx=".91" ry=".91" transform="rotate(90 13.0639 6.73041)"/><ellipse cx="13.064" cy="4.428" fill="#DE1E7E" opacity=".5" rx=".91" ry=".91" transform="rotate(90 13.0639 4.42833)"/><ellipse cx="13.064" cy="2.076" fill="#DE1E7E" opacity=".25" rx=".91" ry=".91" transform="rotate(90 13.0639 2.0763)"/><ellipse cx="11.038" cy=".91" fill="#DE1E7E" opacity=".25" rx=".91" ry=".91" transform="rotate(90 11.038 0.91)"/><ellipse cx="11.038" cy="5.625" fill="#DE1E7E" opacity=".25" rx=".91" ry=".91" transform="rotate(90 11.038 5.62477)"/><ellipse cx="11.038" cy="7.989" fill="#DE1E7E" rx=".91" ry=".91" transform="rotate(90 11.038 7.98915)"/><ellipse cx="11.038" cy="10.348" fill="#DE1E7E" opacity=".25" rx=".91" ry=".91" transform="rotate(90 11.038 10.3485)"/><ellipse cx="11.038" cy="12.701" fill="#DE1E7E" opacity=".5" rx=".91" ry=".91" transform="rotate(90 11.038 12.7008)"/><ellipse cx="11.038" cy="15.053" fill="#DE1E7E" opacity=".45" rx=".91" ry=".91" transform="rotate(90 11.038 15.0531)"/><ellipse cx="9" cy="13.889" fill="#DE1E7E" opacity=".25" rx=".91" ry=".91" transform="rotate(90 9.00034 13.8885)"/><ellipse cx="9" cy="9.153" fill="#DE1E7E" opacity=".5" rx=".91" ry=".91" transform="rotate(90 9.00034 9.15347)"/><ellipse cx="9" cy="6.777" fill="#DE1E7E" opacity=".5" rx=".91" ry=".91" transform="rotate(90 9.00034 6.77678)"/><ellipse cx="9" cy="4.428" fill="#DE1E7E" opacity=".25" rx=".91" ry=".91" transform="rotate(90 9.00034 4.42833)"/><ellipse cx="9" cy="2.076" fill="#DE1E7E" opacity=".5" rx=".91" ry=".91" transform="rotate(90 9.00034 2.0763)"/><ellipse cx="6.984" cy=".91" fill="#DE1E7E" opacity=".25" rx=".91" ry=".91" transform="rotate(90 6.98441 0.91)"/><ellipse cx="4.947" cy="2.076" fill="#DE1E7E" rx=".91" ry=".91" transform="rotate(90 4.94675 2.0763)"/><ellipse cx="2.928" cy=".91" fill="#DE1E7E" opacity=".25" rx=".91" ry=".91" transform="rotate(90 2.92838 0.91)"/><ellipse cx="2.928" cy="3.256" fill="#DE1E7E" opacity=".25" rx=".91" ry=".91" transform="rotate(90 2.92838 3.25616)"/><ellipse cx=".91" cy="4.428" fill="#DE1E7E" opacity=".75" rx=".91" ry=".91" transform="rotate(90 0.910189 4.42833)"/><ellipse cx=".91" cy="6.791" fill="#DE1E7E" opacity=".25" rx=".91" ry=".91" transform="rotate(90 0.910189 6.7909)"/><ellipse cx=".91" cy="9.153" fill="#DE1E7E" opacity=".5" rx=".91" ry=".91" transform="rotate(90 0.910189 9.15347)"/><ellipse cx=".91" cy="13.889" fill="#DE1E7E" opacity=".25" rx=".91" ry=".91" transform="rotate(90 0.910189 13.8885)"/><ellipse cx="2.928" cy="7.989" fill="#DE1E7E" opacity=".25" rx=".91" ry=".91" transform="rotate(90 2.92838 7.98915)"/><ellipse cx="2.928" cy="10.348" fill="#DE1E7E" opacity=".25" rx=".91" ry=".91" transform="rotate(90 2.92838 10.3485)"/><ellipse cx="2.928" cy="12.708" fill="#DE1E7E" opacity=".75" rx=".91" ry=".91" transform="rotate(90 2.92838 12.7078)"/><ellipse cx="2.928" cy="15.053" fill="#DE1E7E" opacity=".25" rx=".91" ry=".91" transform="rotate(90 2.92838 15.0531)"/><ellipse cx="4.947" cy="4.428" fill="#DE1E7E" opacity=".25" rx=".91" ry=".91" transform="rotate(90 4.94675 4.42833)"/><ellipse cx="4.947" cy="6.791" fill="#DE1E7E" opacity=".5" rx=".91" ry=".91" transform="rotate(90 4.94675 6.7909)"/><ellipse cx="4.947" cy="9.153" fill="#DE1E7E" opacity=".5" rx=".91" ry=".91" transform="rotate(90 4.94675 9.15347)"/><ellipse cx="4.947" cy="11.53" fill="#DE1E7E" opacity=".25" rx=".91" ry=".91" transform="rotate(90 4.94675 11.5296)"/><ellipse cx="4.947" cy="13.889" fill="#DE1E7E" opacity=".25" rx=".91" ry=".91" transform="rotate(90 4.94675 13.8885)"/><ellipse cx="6.984" cy="3.256" fill="#DE1E7E" opacity=".5" rx=".91" ry=".91" transform="rotate(90 6.98441 3.25616)"/><ellipse cx="6.984" cy="7.989" fill="#DE1E7E" opacity=".25" rx=".91" ry=".91" transform="rotate(90 6.98441 7.98915)"/><ellipse cx="6.984" cy="10.348" fill="#DE1E7E" rx=".91" ry=".91" transform="rotate(90 6.98441 10.3485)"/><ellipse cx="6.984" cy="12.708" fill="#DE1E7E" opacity=".25" rx=".91" ry=".91" transform="rotate(90 6.98441 12.7078)"/><ellipse cx="6.984" cy="15.053" fill="#DE1E7E" opacity=".75" rx=".91" ry=".91" transform="rotate(90 6.98441 15.0531)"/><ellipse cx="15.09" cy="15.053" fill="#DE1E7E" opacity=".85" rx=".91" ry=".91" transform="rotate(90 15.0898 15.0531)"/></svg>