<svg xmlns="http://www.w3.org/2000/svg" width="215" height="75" fill="none" viewBox="0 0 215 75"><rect width="5" height="50" x="105.003" y="70" fill="#DE1E7E" rx="2.5" transform="rotate(-180 105.003 70.0003)"/><rect width="5" height="55" x="95.001" y="65" fill="#DE1E7E" opacity=".6" rx="2.5" transform="rotate(-180 95.0012 65.0003)"/><rect width="5" height="40" fill="#DE1E7E" opacity=".4" rx="2.5" transform="matrix(-1 -8.14215e-08 -1.07231e-07 1 85.0032 14.9999)"/><rect width="5" height="60" fill="#DE1E7E" opacity=".2" rx="2.5" transform="matrix(-1 -8.14215e-08 -1.07231e-07 1 75.0017 9.99994)"/><rect width="5" height="45" fill="#DE1E7E" opacity=".4" rx="2.5" transform="matrix(-1 -8.14215e-08 -1.07231e-07 1 64.9992 24.9998)"/><rect width="5" height="50" fill="#DE1E7E" opacity=".2" rx="2.5" transform="matrix(-1 -8.14215e-08 -1.07231e-07 1 55.001 9.99994)"/><rect width="5" height="55" fill="#DE1E7E" opacity=".6" rx="2.5" transform="matrix(-1 -4.89277e-08 -1.78445e-07 1 44.9993 14.9999)"/><rect width="5" height="65" fill="#DE1E7E" opacity=".3" rx="2.5" transform="matrix(-1 -8.14215e-08 -1.07231e-07 1 35.0012 9.99994)"/><rect width="5" height="55" fill="#DE1E7E" opacity=".2" rx="2.5" transform="matrix(-1 -8.14215e-08 -1.07231e-07 1 24.9996 9.99994)"/><rect width="5" height="55" fill="#DE1E7E" opacity=".4" rx="2.5" transform="matrix(-1 -8.14215e-08 -1.07231e-07 1 15.0015 9.99994)"/><rect width="5" height="45" fill="#DE1E7E" opacity=".6" rx="2.5" transform="matrix(-1 -4.89277e-08 -1.78445e-07 1 5 19.9998)"/><rect width="5" height="50" x="215" y="70" fill="#DE1E7E" rx="2.5" transform="rotate(-180 215 70.0003)"/><rect width="5" height="57.379" x="205.002" y="62.379" fill="#DE1E7E" opacity=".6" rx="2.5" transform="rotate(-180 205.002 62.3786)"/><rect width="5" height="45" fill="#DE1E7E" opacity=".4" rx="2.5" transform="matrix(-1 -8.14215e-08 -1.07231e-07 1 195 9.99994)"/><rect width="5" height="60" fill="#DE1E7E" opacity=".2" rx="2.5" transform="matrix(-1 -8.14215e-08 -1.07231e-07 1 185.002 9.99994)"/><rect width="5" height="60" fill="#DE1E7E" opacity=".4" rx="2.5" transform="matrix(-1 -8.14215e-08 -1.07231e-07 1 175.001 9.99994)"/><rect width="5" height="60" fill="#DE1E7E" opacity=".2" rx="2.5" transform="matrix(-1 -8.14215e-08 -1.07231e-07 1 165.002 9.99994)"/><rect width="5" height="70" fill="#DE1E7E" opacity=".6" rx="2.5" transform="matrix(-1 -2.58096e-08 -1.5885e-07 1 155.001 0)"/><rect width="5" height="55" fill="#DE1E7E" opacity=".3" rx="2.5" transform="matrix(-1 -8.14215e-08 -1.07231e-07 1 145.002 14.9999)"/><rect width="5" height="55" fill="#DE1E7E" opacity=".2" rx="2.5" transform="matrix(-1 -8.14215e-08 -1.07231e-07 1 135.001 9.99994)"/><rect width="5" height="55" fill="#DE1E7E" opacity=".4" rx="2.5" transform="matrix(-1 -8.14215e-08 -1.07231e-07 1 125.003 9.99994)"/><rect width="5" height="50" fill="#DE1E7E" opacity=".6" rx="2.5" transform="matrix(-1 -4.89277e-08 -1.78445e-07 1 115.001 14.9999)"/></svg>